<svg xmlns="http://www.w3.org/2000/svg" viewBox="0 0 1009 791.92"><defs><style>.cls-1,.cls-2{stroke:#fff;stroke-miterlimit:10;stroke-width:2px;}.cls-2{fill:none;}</style></defs><title>SampleShip</title><g id="Outline"><line class="cls-1" x1="0.5" y1="213.21" x2="216.5" y2="213.21"/><line class="cls-2" x1="217" y1="213.71" x2="217" y2="359.71"/><line class="cls-2" x1="217" y1="359.71" x2="288" y2="359.71"/><line class="cls-2" x1="288" y1="359.71" x2="288" y2="213.71"/><line class="cls-2" x1="288" y1="213.71" x2="504" y2="0.71"/><line class="cls-2" x1="504" y1="0.71" x2="720" y2="213.71"/><line class="cls-2" x1="720" y1="213.71" x2="720" y2="359.71"/><line class="cls-2" x1="720" y1="359.71" x2="792" y2="359.71"/><line class="cls-2" x1="792" y1="359.71" x2="792" y2="213.71"/><line class="cls-2" x1="792" y1="213.71" x2="1008" y2="213.71"/><line class="cls-2" x1="1008" y1="213.71" x2="1008" y2="575.71"/><line class="cls-2" x1="1008" y1="575.71" x2="792" y2="575.71"/><line class="cls-2" x1="792" y1="575.71" x2="792" y2="430.71"/><line class="cls-2" x1="792" y1="430.71" x2="720" y2="430.71"/><line class="cls-2" x1="720" y1="430.71" x2="720" y2="575.71"/><line class="cls-2" x1="720" y1="575.71" x2="504.5" y2="791.21"/><line class="cls-2" x1="504" y1="790.71" x2="288" y2="575.71"/><line class="cls-2" x1="288" y1="575.71" x2="288" y2="430.71"/><line class="cls-2" x1="288" y1="430.71" x2="217" y2="430.71"/><line class="cls-2" x1="217" y1="430.71" x2="217" y2="575.71"/><line class="cls-2" x1="217" y1="575.71" x2="1" y2="575.71"/><line class="cls-2" x1="1" y1="575.71" x2="1" y2="213.71"/></g><g id="Inner_Walls" data-name="Inner Walls"><line class="cls-2" x1="288" y1="575.71" x2="577" y2="575.71"/><line class="cls-2" x1="648" y1="575.71" x2="720" y2="575.71"/></g></svg>